<svg width="32" height="32" viewBox="0 0 32 32" fill="none" xmlns="http://www.w3.org/2000/svg">
<g clip-path="url(#clip0_1_190)">
<path d="M23.5027 2.2407H19.2465V1.51756C19.2465 0.679392 18.5666 0 17.7284 0H14.2721C13.4334 0 12.7545 0.679392 12.7545 1.51756V2.2407H8.49831C6.56761 2.2407 4.99658 3.81172 4.99658 5.74189V28.4999C4.99658 30.4295 6.56761 32 8.49831 32H23.5022C25.4323 32 27.0034 30.4295 27.0034 28.4999V5.74189C27.0044 3.81172 25.4345 2.2407 23.5027 2.2407ZM16.0008 0.684792C16.4188 0.684792 16.7579 1.02395 16.7579 1.44195C16.7579 1.85942 16.4188 2.19857 16.0008 2.19857C15.5828 2.19857 15.2442 1.85942 15.2442 1.44195C15.2436 1.02395 15.5822 0.684792 16.0008 0.684792ZM11.9039 4.3912H20.0982V7.58888H11.9039V4.3912ZM23.5038 29.9991H8.49885C7.67094 29.9991 6.99749 29.3262 6.99749 28.4999V5.74189C6.99749 4.91452 7.67094 4.24107 8.49885 4.24107H9.93V7.81625C9.93 8.77863 10.7125 9.56117 11.6755 9.56117H20.3261C21.2885 9.56117 22.071 8.77863 22.071 7.81625V4.24107H23.5027C24.3295 4.24107 25.0025 4.91452 25.0025 5.74189V28.4999H25.0035C25.0041 29.3262 24.3312 29.9991 23.5038 29.9991Z" fill="#312070"/>
<path d="M12.5471 12.923L12.1966 13.341C12.0784 13.0396 11.7867 12.8252 11.4438 12.8252H9.11508C8.66845 12.8252 8.30499 13.1887 8.30499 13.6353V16.2006C8.30499 16.6472 8.66845 17.0107 9.11508 17.0107H11.4438C11.8904 17.0107 12.2539 16.6472 12.2539 16.2006V14.8288L13.3135 13.5651C13.4912 13.3534 13.4631 13.0385 13.2519 12.8603C13.0397 12.6848 12.7248 12.7123 12.5471 12.923ZM11.7144 16.2011C11.7138 16.3496 11.5923 16.4711 11.4438 16.4711H9.11508C8.96656 16.4711 8.84505 16.3491 8.84505 16.2011V13.6358C8.84505 13.4873 8.96656 13.3658 9.11508 13.3658H11.4438C11.5923 13.3658 11.7138 13.4873 11.7138 13.6358V13.9172L11.0393 14.7214C10.8622 14.9336 10.5543 14.952 10.3523 14.764L9.93651 14.379C9.73506 14.1905 9.41643 14.2024 9.23011 14.4049C9.04163 14.6069 9.05405 14.9233 9.25657 15.1118L10.4231 16.1957C10.5154 16.2821 10.638 16.3291 10.7633 16.3291C10.7741 16.3291 10.7833 16.3291 10.7952 16.3286C10.9318 16.3194 11.0587 16.2551 11.1468 16.1509L11.7144 15.4742V16.2011Z" fill="#312070"/>
<path d="M12.5471 18.363L12.1599 18.8243C12.0254 18.5645 11.7565 18.3841 11.4438 18.3841H9.11508C8.66845 18.3841 8.30499 18.7481 8.30499 19.1942V21.7595C8.30499 22.2061 8.66845 22.5696 9.11508 22.5696H11.4438C11.8904 22.5696 12.2539 22.2061 12.2539 21.7595V20.2694L13.3135 19.0057C13.4912 18.794 13.4631 18.4786 13.2519 18.3004C13.0397 18.1238 12.7248 18.1519 12.5471 18.363ZM11.7144 21.7595C11.7138 21.908 11.5923 22.0295 11.4438 22.0295H9.11508C8.96656 22.0295 8.84505 21.908 8.84505 21.7595V19.1942C8.84505 19.0462 8.96656 18.9242 9.11508 18.9242H11.4438C11.5923 18.9242 11.7138 19.0462 11.7138 19.1942V19.3567L11.0393 20.1614C10.8622 20.3726 10.5543 20.3926 10.3523 20.2036L9.93651 19.8185C9.73506 19.6295 9.41643 19.6419 9.23011 19.8444C9.04163 20.0469 9.05405 20.364 9.25657 20.5519L10.4231 21.6358C10.5154 21.7227 10.638 21.7697 10.7633 21.7697C10.7741 21.7697 10.7833 21.7697 10.7952 21.7681C10.9318 21.7595 11.0587 21.6952 11.1468 21.591L11.7144 20.9143V21.7595Z" fill="#312070"/>
<path d="M12.5471 23.831L12.1453 24.3101C12.006 24.0654 11.7457 23.8975 11.4438 23.8975H9.11508C8.66845 23.8975 8.30499 24.2604 8.30499 24.7076V27.2728C8.30499 27.7189 8.66845 28.0829 9.11508 28.0829H11.4438C11.8904 28.0829 12.2539 27.7189 12.2539 27.2728V25.7364L13.3135 24.4726C13.4912 24.2609 13.4631 23.9455 13.2519 23.7673C13.0397 23.5913 12.7248 23.6193 12.5471 23.831ZM11.7144 27.2728C11.7138 27.4208 11.5923 27.5429 11.4438 27.5429H9.11508C8.96656 27.5429 8.84505 27.4208 8.84505 27.2728V24.7076C8.84505 24.559 8.96656 24.4375 9.11508 24.4375H11.4438C11.5923 24.4375 11.7138 24.559 11.7138 24.7076V24.8247L11.0393 25.6284C10.8622 25.8406 10.5543 25.8595 10.3523 25.6716L9.93651 25.286C9.73506 25.0975 9.41643 25.1094 9.23011 25.3119C9.04163 25.5144 9.05405 25.8309 9.25657 26.0188L10.4231 27.1032C10.5154 27.1897 10.638 27.2372 10.7633 27.2372C10.7741 27.2372 10.7833 27.2372 10.7952 27.2361C10.9318 27.2275 11.0587 27.1632 11.1468 27.0584L11.7144 26.3817V27.2728Z" fill="#312070"/>
<path fill="#312070" d="M23.3499 14.5778H15.2647C14.9876 14.5778 14.764 14.8008 14.764 15.0773C14.764 15.3549 14.9876 15.5779 15.2647 15.5779H23.3504C23.6275 15.5779 23.851 15.3549 23.851 15.0773C23.8505 14.8008 23.6269 14.5778 23.3499 14.5778Z" />
<path fill="#312070" d="M23.3499 19.4761H15.2647C14.9876 19.4761 14.764 19.6997 14.764 19.9767C14.764 20.2532 14.9876 20.4768 15.2647 20.4768H23.3504C23.6275 20.4768 23.851 20.2532 23.851 19.9767C23.8505 19.6997 23.6269 19.4761 23.3499 19.4761Z" />
<path fill="#312070" d="M23.3499 24.3749H15.2647C14.9876 24.3749 14.764 24.5985 14.764 24.8761C14.764 25.152 14.9876 25.3756 15.2647 25.3756H23.3504C23.6275 25.3756 23.851 25.152 23.851 24.8761C23.8505 24.5985 23.6269 24.3749 23.3499 24.3749Z" />
</g>
<defs>
<clipPath id="clip0_1_190">
<rect width="32" height="32" fill="white"/>
</clipPath>
</defs>
</svg>
