<svg width="24" height="24" viewBox="0 0 24 24" fill="none" xmlns="http://www.w3.org/2000/svg">
<g clip-path="url(#clip0_1_175)">
<path fill="#E5226B" d="M12.1048 22.1728C11.2684 22.1803 10.5844 21.5072 10.5776 20.6708L10.5517 17.4632C10.5486 17.0615 10.7052 16.675 10.987 16.3887C11.2689 16.1024 11.6528 15.9398 12.0546 15.9366C12.8906 15.93 13.5741 16.6024 13.5814 17.4396L13.6067 20.6464C13.6138 21.4828 12.9409 22.167 12.1048 22.1728Z" />
<path fill="#0092D2" d="M21.9861 22.9684L2.23726 23.1276C1.40082 23.1342 0.716634 22.4611 0.710071 21.6254C0.706826 21.2236 0.863331 20.8369 1.14516 20.5505C1.42699 20.264 1.81106 20.1013 2.21288 20.098L21.9624 19.939C22.7981 19.9324 23.4816 20.6054 23.4889 21.442C23.4947 22.2784 22.8233 22.9619 21.9861 22.9684Z" />
<path fill="#EF962F" d="M23.6248 15.2421C23.6338 16.4106 22.6959 17.3654 21.5273 17.3751L2.60625 17.5268C1.43775 17.5369 0.483001 16.5963 0.474188 15.4278L0.375001 3.15645C0.366188 1.98907 1.30463 1.03395 2.47313 1.02457L21.3941 0.872137C22.5626 0.86295 23.5168 1.80251 23.5256 2.96989L23.6248 15.2421Z" />
<path fill="#F4A417" d="M2.60625 17.527C1.43775 17.5371 0.483001 16.5964 0.474188 15.4279L0.375001 3.15663C0.366188 1.98925 1.30463 1.03413 2.47313 1.02475L21.3941 0.872314" />
</g>
<defs>
<clipPath id="clip0_1_175">
<rect width="24" height="24" fill="white"/>
</clipPath>
</defs>
</svg>
