<svg width="34" height="34" viewBox="0 0 34 34" fill="none" xmlns="http://www.w3.org/2000/svg">
<path fill="#312070" d="M21.4818 4.25C19.4663 4.25 17.7784 5.65302 17.3417 7.53569H5.40909C4.76894 7.53569 4.25 8.05463 4.25 8.69478C4.25 9.33493 4.76894 9.85387 5.40909 9.85387H17.452C18.0173 11.5373 19.6079 12.75 21.4818 12.75C23.3557 12.75 24.9462 11.5373 25.5116 9.85387H28.5909C29.2311 9.85387 29.75 9.33493 29.75 8.69478C29.75 8.05463 29.2311 7.53569 28.5909 7.53569H25.622C25.1852 5.65302 23.4974 4.25 21.4818 4.25Z" />
<path fill="#312070" d="M10.6636 12.75C8.70883 12.75 7.06225 14.0698 6.56636 15.867L5.37872 15.898C4.73879 15.9148 4.23363 16.4472 4.25041 17.0871C4.26718 17.727 4.79953 18.2322 5.43947 18.2154L6.58118 18.1855C7.09435 19.9559 8.72785 21.25 10.6636 21.25C12.5883 21.25 14.2141 19.9706 14.7372 18.2159H28.5909C29.2311 18.2159 29.75 17.697 29.75 17.0568C29.75 16.4166 29.2311 15.8977 28.5909 15.8977H14.7693C14.2838 14.0849 12.6296 12.75 10.6636 12.75Z" />
<path fill="#312070" d="M21.4818 21.25C19.5661 21.25 17.9465 22.5175 17.4156 24.2596H5.40909C4.76894 24.2596 4.25 24.7785 4.25 25.4187C4.25 26.0587 4.76894 26.5778 5.40909 26.5778H17.3696C17.8467 28.403 19.5069 29.75 21.4818 29.75C23.4566 29.75 25.1169 28.403 25.5939 26.5778H28.5909C29.2311 26.5778 29.75 26.0587 29.75 25.4187C29.75 24.7785 29.2311 24.2596 28.5909 24.2596H25.5479C25.0172 22.5175 23.3975 21.25 21.4818 21.25Z" />
</svg>
